<svg width="500" height="500" viewBox="0 0 500 500" fill="none" xmlns="http://www.w3.org/2000/svg">
<path d="M125 5C123.854 12.7871 120.878 20.2799 119.285 28C113.41 56.4745 108.419 85.0229 113.247 114C115.813 129.401 120.738 147.738 136 155C134.197 142.789 128.213 131.162 125.665 119C122.593 104.334 122.99 89.7981 123 75C124.264 79.2674 124.05 83.752 125.548 88C127.413 93.2884 130.79 97.8704 133 103C135.989 95.8766 133.367 86.4722 133.039 79C132.772 72.8932 133.696 67.0525 133.961 61C134.377 51.4972 133.747 42.3533 136 33C141.926 43.1557 145.876 54.5656 148.5 66C151.295 78.1813 152.825 90.8336 158.9 102C168.893 120.365 188.362 129.48 200 146C191.268 142.315 175.293 142.414 166 144.39C162.23 145.191 158.772 147.104 155 148C157.799 152.364 163.209 154.534 166.985 158.093C173.39 164.131 177.688 171.547 180 180C174.95 178.583 171.984 174.698 168 171.468C163.347 167.695 157.8 164.792 152 163.224C145.792 161.546 140.294 164.399 135 167.427C123.893 173.781 110.442 182.465 103 193L107 194C100.353 203.24 88.8812 209.964 80 217.003C76.5303 219.753 72.3783 222.253 70 226L116 227C117.044 238.958 123.11 252.65 129 263C123.381 259.042 118.391 253.828 114.711 248C112.93 245.181 111.71 239.754 108.606 238.132C104.781 236.132 98.0459 240.714 95 242.75C84.6481 249.67 69.796 259.829 64 271L95 261C88.9118 279.717 83.4352 298.829 79 318C86.8652 311.653 91.9672 302.181 97.7207 294C101.462 288.68 106.04 283.798 109 278C111.684 287.079 108.422 298.872 106.6 308C102.139 330.35 94.0383 352.437 91 375C102.191 365.89 107.302 350.61 119 342C123.123 356.311 131.979 369.805 138.742 383C148.913 402.841 158.289 423.071 168.247 443C172.607 451.725 179.267 460.713 182 470C183.7 465.645 181.651 460.467 180.804 456C179.051 446.756 177.74 437.373 177 428C191.215 442.334 204.337 457.982 217.829 473C224.131 480.014 229.622 488.051 237 494C236.756 482.545 232.342 470.216 229.883 459C229.06 455.242 229.708 449.651 227.897 446.325C225.164 441.302 216.52 435.631 212 432C213.899 441.791 215.961 451.495 219 461C214.601 455.686 211.157 449.615 207.14 444C196.55 429.196 185.719 413.533 178 397C188.199 400.445 197.221 402 208 402C193.359 387.07 174.806 375.961 161 360C170.07 362.574 178.728 365.272 188 367C184.11 361.473 179.36 356.752 175.695 351C167.694 338.442 161.337 324.926 154 312C148.593 302.474 140.649 290.281 141 279C148.939 287.107 155.582 297.703 167 301C167 289.695 169.56 278.758 173 268C177.199 280.401 177.924 292.77 185.52 304C187.424 306.814 190.244 311.415 193.961 311.94C198.707 312.609 203.975 301.689 205 298C210.18 303.426 203.703 310.12 201.748 316C197.128 329.897 194.036 359.409 215 361.811C217.349 362.08 219.699 361.821 222 361.331C226.68 360.334 230.889 358.39 235 356C231.151 348.098 221.381 343.901 221.137 334C220.951 326.477 227.775 321.622 234 318.877C244.822 314.103 258.321 313.139 269 318.901C278.971 324.281 284.535 333.607 277.348 344C274.608 347.962 270.796 351.108 267 354V356C271.664 358.177 275.783 360.835 281 361.546C291.82 363.019 299.717 355.085 301.535 345C304.339 329.455 299.41 314.375 292 301C293.396 300.339 293.814 300.035 295 299C298.45 303.899 302.978 307.771 306 313C311.674 310.346 314.771 305.385 317.691 300C323.475 289.332 326.992 277.149 327 265C332.536 275.212 332.906 288.727 335 300C345.282 295.563 349.592 286.449 358 280L359 281C349.938 313.173 330.399 339.061 313 367C322.102 365.285 330.377 362.344 339 359C329.054 368.519 319.33 378.62 309 387.715C303.807 392.286 295.975 396.502 292 402C302.689 402 313.012 401.344 322 395C308.183 417.391 290.189 438.062 279 462C279.216 451.98 282.382 441.594 285 432C280.334 436.036 273.388 441.305 269.988 446.375C267.268 450.432 266.654 457.283 265.576 462C262.995 473.291 260.546 484.521 259 496C266.836 489.681 272.65 480.55 279.285 473C292.585 457.866 305.757 442.244 320 428C319.99 443.288 316.203 458.014 314 473C316.422 470.002 317.535 466.402 319.32 463C324.333 453.446 328.706 443.447 333.864 434C341.611 419.81 348.615 405.223 356.309 391C365.154 374.647 374.26 358.372 381 341C389.714 352.757 400.251 363.599 408 376C410.795 368.204 403.938 354.81 401.884 347C396.095 324.981 388.98 301.829 388 279C400.135 289.771 406.334 306.755 419 317C415.179 298.539 408.087 279.83 402 262C412.285 262.528 421.879 268.28 432 270C422.476 256.48 405.306 242.406 390 236C385.855 246.415 380.961 254.033 373 262C375.811 249.74 382.161 238.502 384 226C398.117 230.173 415.477 226 430 226C419.061 213.674 401.572 207.552 392 194L396 193C388.7 182.638 376.647 175.04 366 168.425C361.096 165.378 356.004 162.354 350 163.333C339.252 165.085 331.018 174.471 323 181C325.749 167.717 333.638 156.158 346 150V148C335.614 144 325.985 144 315 144C309.411 144 304.13 143.531 299 146C310.156 130.163 328.457 120.925 338.547 104C345.772 91.8798 346.636 77.4321 349.898 64C352.469 53.415 356.845 43.98 361 34C364.355 41.9497 363 51.5142 363 60C363 74.0438 364 87.9776 364 102C369.259 95.6535 372.825 86.2198 373 78C377.19 92.1425 375.376 110.725 372.331 125C370.342 134.327 366.76 143.451 366 153C379.798 149.116 382.8 128.96 384.754 117C388.801 92.2272 385.9 68.4463 381.463 44C379.228 31.6902 377.97 17.5505 373 6C363.287 13.4279 355.785 24.833 347.715 34C336.107 47.1846 323.95 59.9575 312.17 73C305.989 79.8432 299.859 89.4336 292 94.3966C288.484 96.6169 283.973 96 280 96H256H224C219.432 96 213.201 97.0725 209 94.9722C201.008 90.9763 195.165 81.2429 188.996 75C173.433 59.2495 158.903 42.5108 144.166 26C137.983 19.0727 132.497 10.5182 125 5Z" fill="#FAFAFA"/>
<path d="M210 172C212.774 177.949 218.137 181.383 222.675 185.92C230.15 193.392 237.505 204.193 238 215H240C240 208.955 240.314 202.831 238.402 197C234.489 185.071 222.413 174.213 210 172ZM263 215C266.177 207.938 267.162 200.636 271.774 194.001C277.502 185.76 286.226 180.197 292 172C272.292 176.561 258.109 194.458 263 215ZM133 202C142.77 211.903 157.55 211.097 168.996 217.417C177.036 221.857 179.488 231.786 186.04 237.815C192.766 244.004 202.349 243.677 208.956 249.279C216.679 255.826 214.646 267.006 215.039 276C215.275 281.371 216 286.593 216 292C220.157 289.84 221.875 285.986 224.15 282L235.427 262C237.562 258.276 240.841 254.339 241.517 250C242.126 246.088 240.546 241.888 240.17 238C239.743 233.591 240.196 229.329 241 225C239.067 226.895 237.434 230.391 234.787 231.306C230.821 232.678 223.878 229.822 220 228.703C205.923 224.641 185.982 217.755 182 202C175.886 204.01 170.714 208.643 164 208.867C158.021 209.066 152.516 205.709 147 203.89C142.405 202.374 137.801 202.013 133 202ZM320 202C313.588 223.009 284.367 225.302 267 233C266.159 230.533 265.222 228.301 264 226C262.535 229.49 263.186 233.263 262.83 237C262.359 241.948 261.318 247.039 262.39 252C265.654 267.099 276.462 279.868 285 292C288.557 284.077 288.64 272.646 289.87 264C290.519 259.431 291.061 253.888 294.419 250.39C300.51 244.047 311.094 244.342 317.829 238.481C325.066 232.185 327.466 221.121 336.004 216.417C345.197 211.352 360.748 211.545 367 202C362.536 202.003 358.273 202.075 354 203.545C349.435 205.115 344.896 208.138 340 208.501C332.699 209.041 326.505 204.367 320 202Z" fill="#020202"/>
<path d="M221 373C224.045 379.47 230.366 382.603 237 384.575C253.342 389.433 266.114 385.188 280 376C276.366 371.372 271.499 369.727 266 368.025C249.918 363.049 236.089 366.811 221 373Z" fill="#FAFAFA"/>
<path d="M198.333 228.607C202.759 226.429 209.434 230.542 214 231C212.321 236.638 206.36 244.019 200.144 238.678C197.915 236.763 194.321 230.581 198.333 228.607Z" fill="#FAFAFA"/>
<path d="M305.258 236.852C299.291 245 289.972 236.622 288 230C294.464 229.946 300.514 228.018 307 228C306.973 231.013 307.136 234.287 305.258 236.852Z" fill="#FAFAFA"/>
</svg>
