<?xml version="1.0" standalone="no"?>
<!DOCTYPE svg PUBLIC "-//W3C//DTD SVG 1.1//EN" "http://www.w3.org/Graphics/SVG/1.1/DTD/svg11.dtd">
<svg xmlns="http://www.w3.org/2000/svg" width="282" height="363" viewBox="0 0 282 363" fill="none">
<path d="M134.5 0.25C139.945 4.39952 140.804 9.81306 142.215 16.168C142.741 18.404 143.268 20.6399 143.796 22.8757C144.062 24.0306 144.329 25.1855 144.604 26.3753C145.983 32.2678 147.473 38.1322 148.953 44C149.483 46.1158 150.012 48.2316 150.54 50.3477C150.919 51.8623 151.297 53.377 151.688 54.9375C157.388 51.2828 162.481 47.6725 167.215 42.8281C168.274 41.7445 169.334 40.6609 170.425 39.5444C173.416 36.3443 176.284 33.0719 179.129 29.7422C184.038 24.045 189.243 18.6277 195.438 14.3125C196.469 14.3125 197.5 14.3125 198.562 14.3125C198.712 24.734 198.392 34.9923 197.391 45.3672C197.203 47.4009 197.203 47.4009 197.012 49.4756C196.164 57.493 194.62 64.3824 191.629 71.9297C189.948 76.11 189.948 76.11 189.188 79.9375C191.749 84.7853 192.893 86.1591 197 89.3125C198.957 91.0333 200.91 92.7589 202.859 94.4883C204.446 95.8418 204.446 95.8418 206.064 97.2227C222.067 111.321 222.067 111.321 225.125 117.438C224.994 119.085 224.863 120.733 224.728 122.43C223.552 134.067 223.552 134.067 227.719 144.598C231.883 147.921 236.186 150.624 240.75 153.375C242.797 154.772 244.833 156.185 246.86 157.611C256.898 164.67 267.043 171.548 277.463 178.033C279.812 179.938 279.812 179.938 281.375 184.625C272.301 186.978 264.19 188.091 254.812 187.75C256.275 189.965 257.74 192.178 259.207 194.391C260.023 195.623 260.839 196.856 261.679 198.126C264.079 201.846 264.079 201.846 267.038 204.913C268.875 208.062 268.875 208.062 268.033 211.92C259.021 227.535 242.961 233.888 226.688 239.312C217.23 240.187 211.818 237.916 203.836 233.453C177.806 219.714 148.152 213.423 118.875 219C120.438 215.875 122 212.75 123.562 209.625C125.109 209.625 126.656 209.625 128.25 209.625C128.25 208.594 128.25 207.562 128.25 206.5C139.092 200.666 148.877 196.031 161.062 194C152.728 179.707 144.499 171.499 128.476 166.54C123.86 165.624 119.271 165.325 114.578 164.996C111.835 164.8 111.835 164.8 109.036 164.599C107.642 164.505 106.249 164.41 104.812 164.312C106.187 153.3 114.231 146.288 122.482 139.447C125.405 137.248 128.348 135.115 131.375 133.062C117.784 128.678 101.341 136.785 89.1875 142.438C83.7375 145.797 78.6009 149.428 73.5625 153.375C78.2031 154.148 78.2031 154.148 82.9375 154.938C80.7725 159.793 78.2089 163.127 74.5391 166.949C68.8245 173.284 65.5866 179.803 62.625 187.75C65.2837 186.977 65.2837 186.977 67.9961 186.188C75.1218 184.377 81.8775 184.32 89.1875 184.625C89.1875 185.656 89.1875 186.688 89.1875 187.75C87.4473 188.471 85.707 189.192 83.9141 189.935C69.8766 195.889 56.7993 202.377 44.0764 210.814C39.3279 213.948 35.379 216.276 29.8125 217.438C29.8125 218.469 24.6875 223.125 24.6875 224.188C21.3794 227.227 22.1953 227.008 22.1953 227.008C20.0744 228.706 20.0744 228.706 17.9106 230.438C14.1875 233.062 14.1875 233.062 11.0625 233.062C11.8724 224.067 15.4633 217.255 19.6562 209.43C20.3469 208.126 21.0375 206.822 21.749 205.479C27.6603 194.575 34.4147 184.807 42.3125 175.25C37.5736 175.25 34.5027 176.102 30.0078 177.496C20.117 180.303 10.3613 181.028 0.125 181.5C0.125 178.375 0.125 178.375 3.73828 174.371C7.9375 170.562 7.6875 170.688 7.6875 170.688C7.6875 170.688 14.773 164.864 15.75 162.75C17.8012 160.225 17.8012 160.225 20.1018 157.806C20.9306 156.924 21.7595 156.042 22.6134 155.133C23.4745 154.23 24.3355 153.328 25.2227 152.398C31.3214 146.354 31.3214 146.354 36.0625 139.312C35.0655 139.141 34.0685 138.97 33.0413 138.794C31.1046 138.422 31.1046 138.422 29.1289 138.043C27.1983 137.689 27.1983 137.689 25.2288 137.329C24.1633 136.952 23.0978 136.576 22 136.188C21.4844 134.641 20.9688 133.094 20.4375 131.5C21.1539 130.965 21.8703 130.429 22.6084 129.878C25.8897 127.425 29.1695 124.97 32.4492 122.516C33.5761 121.674 34.7031 120.832 35.8641 119.964C39.0626 117.569 42.2503 115.16 45.4375 112.75C46.9622 111.614 48.4869 110.478 50.0579 109.308C53.6443 106.628 53.6443 106.628 54.8125 101.812C53.2656 101.812 51.7188 101.812 50.125 101.812C51.3657 101.289 62.7627 90.9995 64.041 90.46C67.3125 89.3125 67.3125 89.3125 70.4375 89.3125C70.5825 87.5239 70.5825 87.5239 70.7305 85.6992C75.5519 63.8174 90.5831 44.8019 106.534 29.6628C109.97 26.3612 112.828 22.7573 115.75 19C118.319 16.3613 120.928 13.7609 123.562 11.1875C125.55 9.20389 127.536 7.21814 129.52 5.23047C131.18 3.57031 132.84 1.91016 134.5 0.25ZM125.125 29.9375C105.139 56.4814 95.5685 82.8864 92.3125 115.875C96.4905 112.765 100.654 109.636 104.812 106.5C106.359 105.34 107.906 104.18 109.5 102.984C110.531 102.082 111.562 101.18 112.625 100.25C114.172 99.4766 115.75 95.5625 115.75 95.5625C116.484 90.4444 116.484 90.4444 116.727 84.5273C116.843 82.5112 116.96 80.495 117.081 78.4177C117.157 76.8568 117.234 75.2958 117.312 73.6875C118.279 74.7188 119.246 75.75 120.242 76.8125C123.182 80.2945 123.182 80.2945 126.688 79.9375C133.334 65.3632 132.797 46.6849 128.25 31.5C127.219 30.9844 126.188 30.4688 125.125 29.9375ZM153.25 129.938C158.075 132.695 159.864 133.062 165.75 133.062C166.169 133.989 166.588 134.916 167.02 135.87C170.098 141.582 174.116 145.558 179.812 148.688C183.897 148.967 187.746 148.693 191.824 148.395C195.438 148.688 195.438 148.688 198.172 150.738C200.32 153.375 200.32 153.375 203.25 158.062C206.527 153.147 206.771 151.95 206.668 146.344C206.653 144.531 206.653 144.531 206.637 142.682C206.489 139.026 206.489 139.026 204.812 134.625C200.758 132.687 196.928 131.109 192.703 129.645C191.512 129.229 190.32 128.813 189.092 128.385C178.295 124.856 161.384 119.562 153.25 129.938Z" fill="#F4F4F4"/>
<path d="M183.25 234.187C182.734 235.477 182.219 236.766 181.688 238.094C178.93 247.745 179.693 254.931 182.469 264.363C187.777 284.499 187.252 304.906 177 323.25C171.55 319.798 169.609 316.866 167.625 310.75C167.265 312.035 166.904 313.32 166.533 314.644C161.599 331.532 155.464 348.141 142.625 360.75C139.164 361.916 139.164 361.916 136.375 362.312C135.618 359.678 134.871 357.041 134.129 354.402C133.503 352.2 21.826 227.934 21.188 225.687C20.7268 223.797 25.7039 217.672 30.1875 220.688C53.6033 236.434 129.235 314.187 129.235 314.187C129.982 296.301 134.678 278.737 143.809 263.033C151.826 250.125 166.906 234.187 183.25 234.187Z" fill="#F4F4F4"/>
</svg>